<svg width="324" height="246" viewBox="0 0 324 246" fill="none" xmlns="http://www.w3.org/2000/svg">
<g clip-path="url(#clip0)">
<path d="M156.273 216.831C86.7511 211.546 3.84329 157.726 8.06425 102.31C12.2852 46.8936 92.5823 -4.69424 162.104 0.591606C231.626 5.87746 271.645 109.441 267.424 164.857C263.203 220.273 225.794 222.117 156.273 216.831Z" fill="#F2F2F2"/>
<path d="M162.103 225.732C242.253 225.732 307.227 221.755 307.227 216.849C307.227 211.943 242.253 207.966 162.103 207.966C81.9533 207.966 16.979 211.943 16.979 216.849C16.979 221.755 81.9533 225.732 162.103 225.732Z" fill="#3F3D56"/>
<path opacity="0.1" d="M162.103 222.58C230.373 222.58 285.717 219.95 285.717 216.706C285.717 213.462 230.373 210.832 162.103 210.832C93.8334 210.832 38.4896 213.462 38.4896 216.706C38.4896 219.95 93.8334 222.58 162.103 222.58Z" fill="black"/>
<path d="M60.8605 245.218C94.4718 245.218 121.719 242.844 121.719 239.917C121.719 236.989 94.4718 234.615 60.8605 234.615C27.2493 234.615 0.00195312 236.989 0.00195312 239.917C0.00195312 242.844 27.2493 245.218 60.8605 245.218Z" fill="#3F3D56"/>
<path opacity="0.1" d="M60.8605 243.337C89.4898 243.337 112.698 241.767 112.698 239.831C112.698 237.895 89.4898 236.325 60.8605 236.325C32.2311 236.325 9.02246 237.895 9.02246 239.831C9.02246 241.767 32.2311 243.337 60.8605 243.337Z" fill="black"/>
<path d="M271.95 46.6387H56.2716V215.703H271.95V46.6387Z" fill="#3F3D56"/>
<path d="M161.657 69.7429H108.449C108.365 69.7431 108.28 69.7266 108.202 69.6942C108.123 69.6619 108.052 69.6144 107.992 69.5545C107.932 69.4945 107.884 69.4233 107.852 69.345C107.819 69.2666 107.802 69.1826 107.802 69.0978C107.802 69.0129 107.819 68.9289 107.852 68.8506C107.884 68.7722 107.932 68.701 107.992 68.6411C108.052 68.5812 108.123 68.5337 108.202 68.5014C108.28 68.469 108.365 68.4525 108.449 68.4526H161.657C161.828 68.453 161.992 68.5211 162.113 68.6421C162.234 68.763 162.302 68.9269 162.302 69.0978C162.302 69.2687 162.234 69.4325 162.113 69.5535C161.992 69.6744 161.828 69.7426 161.657 69.7429Z" fill="#F2F2F2"/>
<path d="M219.902 76.8396H136.216C136.044 76.8396 135.88 76.7717 135.759 76.6507C135.638 76.5297 135.57 76.3656 135.57 76.1945C135.57 76.0234 135.638 75.8593 135.759 75.7383C135.88 75.6173 136.044 75.5493 136.216 75.5493H219.902C219.986 75.5493 220.07 75.566 220.149 75.5984C220.227 75.6308 220.298 75.6784 220.358 75.7383C220.418 75.7982 220.466 75.8693 220.498 75.9476C220.531 76.0258 220.547 76.1097 220.547 76.1945C220.547 76.2792 220.531 76.3631 220.498 76.4414C220.466 76.5196 220.418 76.5908 220.358 76.6507C220.298 76.7106 220.227 76.7581 220.149 76.7905C220.07 76.8229 219.986 76.8396 219.902 76.8396Z" fill="#F2F2F2"/>
<path d="M161.915 83.9362H108.708C108.536 83.9362 108.372 83.8682 108.251 83.7472C108.13 83.6262 108.062 83.4621 108.062 83.291C108.062 83.1199 108.13 82.9558 108.251 82.8348C108.372 82.7138 108.536 82.6459 108.708 82.6459H161.915C162.087 82.6459 162.251 82.7138 162.372 82.8348C162.493 82.9558 162.561 83.1199 162.561 83.291C162.561 83.4621 162.493 83.6262 162.372 83.7472C162.251 83.8682 162.087 83.9362 161.915 83.9362Z" fill="#F2F2F2"/>
<path d="M219.902 84.0652H166.694C166.523 84.0652 166.358 83.9972 166.237 83.8762C166.116 83.7553 166.048 83.5912 166.048 83.4201C166.048 83.249 166.116 83.0849 166.237 82.9639C166.358 82.8429 166.523 82.7749 166.694 82.7749H219.902C220.073 82.7749 220.237 82.8429 220.358 82.9639C220.479 83.0849 220.547 83.249 220.547 83.4201C220.547 83.5912 220.479 83.7553 220.358 83.8762C220.237 83.9972 220.073 84.0652 219.902 84.0652Z" fill="#F2F2F2"/>
<path d="M162.045 91.0327H108.837C108.666 91.0327 108.501 90.9647 108.38 90.8438C108.259 90.7228 108.191 90.5587 108.191 90.3876C108.191 90.2165 108.259 90.0524 108.38 89.9314C108.501 89.8104 108.666 89.7424 108.837 89.7424H162.045C162.216 89.7424 162.38 89.8104 162.501 89.9314C162.622 90.0524 162.69 90.2165 162.69 90.3876C162.69 90.5587 162.622 90.7228 162.501 90.8438C162.38 90.9647 162.216 91.0327 162.045 91.0327Z" fill="#F2F2F2"/>
<path d="M162.174 98.1294H108.966C108.795 98.1294 108.631 98.0614 108.509 97.9404C108.388 97.8194 108.32 97.6554 108.32 97.4843C108.32 97.3132 108.388 97.1491 108.509 97.0281C108.631 96.9071 108.795 96.8391 108.966 96.8391H162.174C162.345 96.8391 162.509 96.9071 162.63 97.0281C162.751 97.1491 162.82 97.3132 162.82 97.4843C162.82 97.6554 162.751 97.8194 162.63 97.9404C162.509 98.0614 162.345 98.1294 162.174 98.1294Z" fill="#F2F2F2"/>
<path d="M186.324 69.872H171.085C170.914 69.872 170.749 69.804 170.628 69.683C170.507 69.562 170.439 69.3979 170.439 69.2268C170.439 69.0557 170.507 68.8916 170.628 68.7706C170.749 68.6496 170.914 68.5817 171.085 68.5817H186.324C186.495 68.5817 186.659 68.6496 186.781 68.7706C186.902 68.8916 186.97 69.0557 186.97 69.2268C186.97 69.3979 186.902 69.562 186.781 69.683C186.659 69.804 186.495 69.872 186.324 69.872Z" fill="#F2F2F2"/>
<path d="M186.324 91.0327H171.085C170.914 91.0327 170.749 90.9647 170.628 90.8438C170.507 90.7228 170.439 90.5587 170.439 90.3876C170.439 90.2165 170.507 90.0524 170.628 89.9314C170.749 89.8104 170.914 89.7424 171.085 89.7424H186.324C186.495 89.7424 186.659 89.8104 186.781 89.9314C186.902 90.0524 186.97 90.2165 186.97 90.3876C186.97 90.5587 186.902 90.7228 186.781 90.8438C186.659 90.9647 186.495 91.0327 186.324 91.0327Z" fill="#F2F2F2"/>
<path d="M186.324 98.0004H171.085C171 98.0006 170.916 97.984 170.837 97.9517C170.759 97.9193 170.687 97.8718 170.627 97.8119C170.567 97.752 170.52 97.6808 170.487 97.6024C170.455 97.5241 170.438 97.4401 170.438 97.3552C170.438 97.2704 170.455 97.1864 170.487 97.108C170.52 97.0297 170.567 96.9585 170.627 96.8986C170.687 96.8386 170.759 96.7911 170.837 96.7588C170.916 96.7265 171 96.7099 171.085 96.7101H186.324C186.409 96.7099 186.493 96.7265 186.571 96.7588C186.65 96.7911 186.721 96.8386 186.781 96.8986C186.842 96.9585 186.889 97.0297 186.922 97.108C186.954 97.1864 186.971 97.2704 186.971 97.3552C186.971 97.4401 186.954 97.5241 186.922 97.6024C186.889 97.6808 186.842 97.752 186.781 97.8119C186.721 97.8718 186.65 97.9193 186.571 97.9517C186.493 97.984 186.409 98.0006 186.324 98.0004Z" fill="#F2F2F2"/>
<path d="M211.895 98.0004H196.655C196.484 98 196.321 97.9319 196.2 97.8109C196.079 97.69 196.011 97.5261 196.011 97.3552C196.011 97.1844 196.079 97.0205 196.2 96.8995C196.321 96.7786 196.484 96.7104 196.655 96.7101H211.895C211.979 96.7099 212.064 96.7265 212.142 96.7588C212.221 96.7911 212.292 96.8386 212.352 96.8986C212.412 96.9585 212.46 97.0297 212.492 97.108C212.525 97.1864 212.542 97.2704 212.542 97.3552C212.542 97.4401 212.525 97.5241 212.492 97.6024C212.46 97.6808 212.412 97.752 212.352 97.8119C212.292 97.8718 212.221 97.9193 212.142 97.9517C212.064 97.984 211.979 98.0006 211.895 98.0004Z" fill="#F2F2F2"/>
<path d="M123.559 76.8396H108.32C108.149 76.8396 107.985 76.7717 107.864 76.6507C107.743 76.5297 107.675 76.3656 107.675 76.1945C107.675 76.0234 107.743 75.8593 107.864 75.7383C107.985 75.6173 108.149 75.5493 108.32 75.5493H123.559C123.731 75.5493 123.895 75.6173 124.016 75.7383C124.137 75.8593 124.205 76.0234 124.205 76.1945C124.205 76.3656 124.137 76.5297 124.016 76.6507C123.895 76.7717 123.731 76.8396 123.559 76.8396Z" fill="#F2F2F2"/>
<path d="M161.722 174.257H108.514C108.343 174.257 108.179 174.189 108.057 174.068C107.936 173.947 107.868 173.783 107.868 173.611C107.868 173.44 107.936 173.276 108.057 173.155C108.179 173.034 108.343 172.966 108.514 172.966H161.722C161.893 172.966 162.057 173.034 162.178 173.155C162.299 173.276 162.367 173.44 162.367 173.611C162.367 173.783 162.299 173.947 162.178 174.068C162.057 174.189 161.893 174.257 161.722 174.257Z" fill="#F2F2F2"/>
<path d="M161.463 188.45H108.256C108.084 188.45 107.92 188.382 107.799 188.261C107.678 188.14 107.61 187.976 107.61 187.805C107.61 187.634 107.678 187.469 107.799 187.349C107.92 187.228 108.084 187.16 108.256 187.16H161.463C161.635 187.16 161.799 187.228 161.92 187.349C162.041 187.469 162.109 187.634 162.109 187.805C162.109 187.976 162.041 188.14 161.92 188.261C161.799 188.382 161.635 188.45 161.463 188.45Z" fill="#F2F2F2"/>
<path d="M161.593 195.547H108.385C108.3 195.547 108.216 195.53 108.137 195.498C108.059 195.465 107.988 195.418 107.927 195.358C107.867 195.298 107.82 195.227 107.787 195.149C107.755 195.07 107.738 194.986 107.738 194.901C107.738 194.817 107.755 194.733 107.787 194.654C107.82 194.576 107.867 194.505 107.927 194.445C107.988 194.385 108.059 194.337 108.137 194.305C108.216 194.273 108.3 194.256 108.385 194.256H161.593C161.678 194.256 161.762 194.273 161.84 194.305C161.919 194.337 161.99 194.385 162.05 194.445C162.11 194.505 162.158 194.576 162.19 194.654C162.223 194.733 162.24 194.817 162.24 194.901C162.24 194.986 162.223 195.07 162.19 195.149C162.158 195.227 162.11 195.298 162.05 195.358C161.99 195.418 161.919 195.465 161.84 195.498C161.762 195.53 161.678 195.547 161.593 195.547Z" fill="#F2F2F2"/>
<path d="M184.322 188.579H169.083C168.912 188.579 168.747 188.511 168.626 188.39C168.505 188.269 168.437 188.105 168.437 187.934C168.437 187.763 168.505 187.599 168.626 187.478C168.747 187.357 168.912 187.289 169.083 187.289H184.322C184.493 187.289 184.658 187.357 184.779 187.478C184.9 187.599 184.968 187.763 184.968 187.934C184.968 188.105 184.9 188.269 184.779 188.39C184.658 188.511 184.493 188.579 184.322 188.579Z" fill="#F2F2F2"/>
<path d="M184.322 195.547H169.083C168.912 195.547 168.747 195.479 168.626 195.358C168.505 195.237 168.437 195.072 168.437 194.901C168.437 194.73 168.505 194.566 168.626 194.445C168.747 194.324 168.912 194.256 169.083 194.256H184.322C184.493 194.256 184.658 194.324 184.779 194.445C184.9 194.566 184.968 194.73 184.968 194.901C184.968 195.072 184.9 195.237 184.779 195.358C184.658 195.479 184.493 195.547 184.322 195.547Z" fill="#F2F2F2"/>
<path d="M209.893 188.579H194.654C194.483 188.579 194.318 188.511 194.197 188.39C194.076 188.269 194.008 188.105 194.008 187.934C194.008 187.763 194.076 187.599 194.197 187.478C194.318 187.357 194.483 187.289 194.654 187.289H209.893C210.064 187.289 210.228 187.357 210.349 187.478C210.471 187.599 210.539 187.763 210.539 187.934C210.539 188.105 210.471 188.269 210.349 188.39C210.228 188.511 210.064 188.579 209.893 188.579Z" fill="#F2F2F2"/>
<path d="M219.966 181.353H136.28C136.109 181.353 135.945 181.285 135.824 181.164C135.703 181.043 135.635 180.879 135.635 180.708C135.635 180.537 135.703 180.373 135.824 180.252C135.945 180.131 136.109 180.063 136.28 180.063H219.966C220.137 180.063 220.302 180.131 220.423 180.252C220.544 180.373 220.612 180.537 220.612 180.708C220.612 180.879 220.544 181.043 220.423 181.164C220.302 181.285 220.137 181.353 219.966 181.353Z" fill="#F2F2F2"/>
<path d="M123.624 181.353H108.385C108.214 181.353 108.049 181.285 107.928 181.164C107.807 181.043 107.739 180.879 107.739 180.708C107.739 180.537 107.807 180.373 107.928 180.252C108.049 180.131 108.214 180.063 108.385 180.063H123.624C123.795 180.063 123.959 180.131 124.081 180.252C124.202 180.373 124.27 180.537 124.27 180.708C124.27 180.879 124.202 181.043 124.081 181.164C123.959 181.285 123.795 181.353 123.624 181.353Z" fill="#F2F2F2"/>
<path d="M219.966 202.772H136.28C136.195 202.772 136.111 202.756 136.033 202.723C135.954 202.691 135.883 202.644 135.823 202.584C135.763 202.524 135.715 202.453 135.682 202.374C135.65 202.296 135.633 202.212 135.633 202.127C135.633 202.042 135.65 201.958 135.682 201.88C135.715 201.801 135.763 201.73 135.823 201.67C135.883 201.61 135.954 201.563 136.033 201.531C136.111 201.498 136.195 201.482 136.28 201.482H219.966C220.137 201.482 220.302 201.55 220.423 201.671C220.544 201.792 220.612 201.956 220.612 202.127C220.612 202.298 220.544 202.462 220.423 202.583C220.302 202.704 220.137 202.772 219.966 202.772Z" fill="#F2F2F2"/>
<path d="M123.624 202.772H108.385C108.3 202.772 108.216 202.756 108.137 202.723C108.059 202.691 107.988 202.644 107.927 202.584C107.867 202.524 107.82 202.453 107.787 202.374C107.755 202.296 107.738 202.212 107.738 202.127C107.738 202.042 107.755 201.958 107.787 201.88C107.82 201.801 107.867 201.73 107.927 201.67C107.988 201.61 108.059 201.563 108.137 201.531C108.216 201.498 108.3 201.482 108.385 201.482H123.624C123.709 201.482 123.793 201.498 123.871 201.531C123.95 201.563 124.021 201.61 124.081 201.67C124.142 201.73 124.189 201.801 124.222 201.88C124.254 201.958 124.271 202.042 124.271 202.127C124.271 202.212 124.254 202.296 124.222 202.374C124.189 202.453 124.142 202.524 124.081 202.584C124.021 202.644 123.95 202.691 123.871 202.723C123.793 202.756 123.709 202.772 123.624 202.772Z" fill="#F2F2F2"/>
<path d="M148.872 115.161L128.209 135.548L148.872 155.935L153.521 151.29L137.895 135.677L153.65 119.935L148.872 115.161Z" fill="#0D7EA0"/>
<path d="M179.35 115.161L200.013 135.548L179.35 155.935L174.701 151.29L190.327 135.677L174.572 119.935L179.35 115.161Z" fill="#0D7EA0"/>
<path d="M62.0078 53.5158C63.4334 53.5158 64.589 52.3612 64.589 50.9369C64.589 49.5125 63.4334 48.3579 62.0078 48.3579C60.5822 48.3579 59.4265 49.5125 59.4265 50.9369C59.4265 52.3612 60.5822 53.5158 62.0078 53.5158Z" fill="#0D7EA0"/>
<path d="M68.8911 53.5158C70.3167 53.5158 71.4723 52.3612 71.4723 50.9369C71.4723 49.5125 70.3167 48.3579 68.8911 48.3579C67.4655 48.3579 66.3098 49.5125 66.3098 50.9369C66.3098 52.3612 67.4655 53.5158 68.8911 53.5158Z" fill="#0D7EA0"/>
<path d="M75.7744 53.5158C77.2 53.5158 78.3556 52.3612 78.3556 50.9369C78.3556 49.5125 77.2 48.3579 75.7744 48.3579C74.3488 48.3579 73.1931 49.5125 73.1931 50.9369C73.1931 52.3612 74.3488 53.5158 75.7744 53.5158Z" fill="#0D7EA0"/>
<path opacity="0.1" d="M271.95 55.2352H56.2716V56.0949H271.95V55.2352Z" fill="black"/>
<path d="M323.002 174.283C323.002 192.557 312.129 198.937 298.716 198.937C285.304 198.937 274.43 192.557 274.43 174.283C274.43 156.01 298.716 132.763 298.716 132.763C298.716 132.763 323.002 156.01 323.002 174.283Z" fill="#F2F2F2"/>
<path d="M297.832 196.142L298.08 180.849L308.432 161.929L298.119 178.45L298.231 171.573L305.365 157.885L298.261 169.753L298.462 157.386L306.101 146.488L298.493 155.441L298.619 132.763L297.829 162.784L297.894 161.546L290.127 149.668L297.77 163.923L297.046 177.736L297.025 177.369L288.071 164.87L296.997 178.664L296.907 180.392L296.891 180.418L296.898 180.56L295.062 215.604H297.515L297.809 197.503L306.714 183.742L297.832 196.142Z" fill="#3F3D56"/>
<path d="M35.1706 215.443C34.4255 215.857 33.6395 216.193 32.8251 216.446C31.3685 216.844 29.8116 216.698 28.3403 217.037C27.7379 217.176 27.0823 217.467 26.8907 218.054C26.7502 218.485 26.903 218.95 27.0494 219.379C28.6752 224.141 29.6551 229.198 32.2479 233.512C33.3375 235.324 34.6899 236.964 36.2611 238.38C36.8505 238.91 37.5184 239.43 38.3075 239.513C38.6712 239.551 39.0386 239.493 39.3725 239.344C39.7065 239.195 39.9953 238.961 40.2097 238.665C40.4241 238.369 40.5566 238.022 40.5938 237.659C40.631 237.295 40.5715 236.928 40.4215 236.595C40.189 236.079 39.7569 235.679 39.4782 235.187C39.1759 234.559 38.9987 233.879 38.9563 233.183C38.7002 231.147 38.4534 229.018 39.1598 227.09C39.6336 225.797 40.5026 224.695 41.2266 223.523C41.9506 222.351 42.5522 221.009 42.3911 219.642C42.2811 218.709 41.8255 217.855 41.3442 217.048C40.862 216.239 39.9088 214.065 38.94 213.795C37.9342 213.515 36.0478 214.993 35.1706 215.443Z" fill="#2F2E41"/>
<path d="M61.6816 231.893C61.6968 232.354 61.6324 232.814 61.4914 233.253C61.1881 234.053 60.4356 234.601 60.0469 235.364C59.5063 236.424 59.7513 237.706 60.1095 238.841C60.3341 239.553 60.6286 240.293 61.2316 240.733C61.7473 241.052 62.3338 241.24 62.9392 241.28C68.1122 241.995 73.3669 241.584 78.587 241.734C79.5384 241.762 80.5457 241.795 81.3763 241.33C82.2068 240.866 82.7202 239.698 82.1554 238.933C81.6481 238.245 80.6452 238.252 79.7915 238.211C77.5683 238.098 75.4512 237.227 73.7935 235.743C73.4666 235.464 73.1831 235.137 72.9522 234.775C72.7747 234.453 72.6274 234.116 72.5121 233.767C71.7804 231.787 70.9098 229.86 69.9069 228.002C69.6262 227.482 69.3084 226.94 68.7867 226.662C68.4047 226.489 67.9903 226.398 67.5708 226.397C66.2697 226.313 62.9007 225.87 61.8946 226.881C60.965 227.815 61.7022 230.707 61.6816 231.893Z" fill="#2F2E41"/>
<path d="M69.6877 116.47C74.2773 116.47 77.9979 112.752 77.9979 108.167C77.9979 103.581 74.2773 99.864 69.6877 99.864C65.0981 99.864 61.3774 103.581 61.3774 108.167C61.3774 112.752 65.0981 116.47 69.6877 116.47Z" fill="#FBBEBE"/>
<path d="M62.1833 115.023C61.689 116.345 60.8506 117.586 59.6306 118.298L71.1243 120.64C70.7074 118.964 70.6525 117.219 70.9632 115.52C71.0772 115.109 71.1007 114.678 71.0319 114.257C70.8158 113.423 69.8771 113.022 69.0372 112.831C66.9395 112.353 65.0844 112.097 63.135 111.172C62.5392 112.191 62.6226 113.848 62.1833 115.023Z" fill="#FBBEBE"/>
<path d="M59.5346 115.189C60.771 114.63 62.1181 114.358 63.4748 114.393C64.8316 114.429 66.1626 114.771 67.3682 115.394C68.8417 116.169 70.0618 117.34 71.2606 118.496C72.3655 119.561 73.5442 120.78 73.6227 122.312C73.6607 123.054 73.4288 123.78 73.3118 124.514C73.1014 126.032 73.3688 127.577 74.0769 128.936C74.7851 130.295 75.8989 131.401 77.264 132.099C78.177 133.619 78.3655 135.46 78.3795 137.232C78.4325 143.948 76.3118 150.746 77.8258 157.289C78.1813 158.826 78.7326 160.314 79.0397 161.86C79.4374 163.863 79.4178 165.923 79.6259 167.955C79.8516 170.155 80.344 172.32 81.0924 174.401C80.5922 175.196 79.5512 175.501 78.6137 175.436C77.6762 175.372 76.7996 174.965 75.9631 174.538C71.9124 172.467 68.2023 169.736 64.007 167.976C61.2314 166.811 58.2744 166.086 55.5818 164.741C52.8891 163.396 50.3849 161.262 49.5615 158.369C49.2056 157.118 49.1836 155.8 49.1642 154.5C49.0824 149.023 49.0063 143.486 50.1996 138.139C51.2519 133.425 53.2803 128.914 53.7228 124.104C53.8669 122.538 53.8699 120.862 54.7456 119.556C55.9832 117.709 58.6554 117.231 59.5346 115.189Z" fill="#2F2E41"/>
<path d="M64.9613 108.284C65.451 107.646 66.3954 107.559 67.1777 107.748C67.96 107.936 68.6814 108.339 69.4714 108.492C69.651 108.543 69.8393 108.556 70.0242 108.53C70.209 108.504 70.3864 108.44 70.545 108.342C70.8212 108.07 70.9864 107.705 71.0084 107.318C71.2851 105.673 71.3498 104 71.2008 102.338C71.1596 102.105 71.1753 101.865 71.2463 101.64C71.4419 101.169 72.0387 101.057 72.5261 100.906C73.3302 100.634 74.0209 100.103 74.489 99.3951C74.9571 98.6877 75.176 97.8446 75.111 96.9991C75.0989 96.5935 74.9283 96.2088 74.6359 95.9272C74.2988 95.6528 73.8271 95.6359 73.3923 95.6324C71.1584 95.6145 68.9245 95.6151 66.6906 95.6341C65.8638 95.6411 64.9954 95.6614 64.2787 96.0733C63.7488 96.3778 63.3547 96.8679 62.8789 97.2514C61.6382 98.2518 59.9599 98.4553 58.4503 98.9681C57.7134 99.1777 57.0443 99.5764 56.5093 100.124C56.0073 100.697 55.766 101.55 56.0813 102.243C56.2431 102.532 56.4239 102.81 56.6224 103.075C57.5128 104.497 56.9201 106.342 57.053 108.015C57.2191 110.103 60.3126 113.491 62.4102 113.986C65.7968 114.783 63.8403 109.655 64.9613 108.284Z" fill="#2F2E41"/>
<path d="M60.2699 199.852C60.4836 201.377 60.7577 202.907 60.6844 204.445C60.5821 206.592 59.807 208.661 59.6637 210.806C59.5567 212.408 59.8042 214.028 59.5816 215.618C59.439 216.636 59.1067 217.617 58.9009 218.625C58.5751 220.266 58.5843 221.957 58.928 223.595C59.2716 225.233 59.9426 226.784 60.9009 228.157C61.0416 228.392 61.2418 228.586 61.4812 228.719C61.7108 228.804 61.9566 228.836 62.2005 228.814C64.6192 228.765 67.0315 228.546 69.4194 228.159C69.5943 228.151 69.7599 228.078 69.883 227.954C69.9368 227.872 69.9713 227.778 69.9837 227.681C70.4264 225.407 69.4167 223.127 69.16 220.824C68.8858 218.366 69.4762 215.902 70.0623 213.499C70.328 212.313 70.66 211.143 71.0567 209.995C71.34 209.222 71.6821 208.47 71.9277 207.684C72.2754 206.45 72.4872 205.181 72.5592 203.901C72.7297 201.881 72.82 199.856 72.8302 197.827C72.8881 195.903 72.7279 193.98 72.3526 192.093C71.814 189.704 70.711 187.485 69.6177 185.293C69.033 185.433 68.4842 185.693 68.0064 186.058C66.5975 186.97 65.1264 187.782 63.6039 188.488C62.581 188.963 60.5862 189.3 59.9369 190.289C59.2967 191.265 59.7098 193.255 59.7587 194.331C59.8427 196.178 60.0131 198.018 60.2699 199.852Z" fill="#2F2E41"/>
<path opacity="0.1" d="M60.2699 199.852C60.4836 201.377 60.7577 202.907 60.6844 204.445C60.5821 206.592 59.807 208.661 59.6637 210.806C59.5567 212.408 59.8042 214.028 59.5816 215.618C59.439 216.636 59.1067 217.617 58.9009 218.625C58.5751 220.266 58.5843 221.957 58.928 223.595C59.2716 225.233 59.9426 226.784 60.9009 228.157C61.0416 228.392 61.2418 228.586 61.4812 228.719C61.7108 228.804 61.9566 228.836 62.2005 228.814C64.6192 228.765 67.0315 228.546 69.4194 228.159C69.5943 228.151 69.7599 228.078 69.883 227.954C69.9368 227.872 69.9713 227.778 69.9837 227.681C70.4264 225.407 69.4167 223.127 69.16 220.824C68.8858 218.366 69.4762 215.902 70.0623 213.499C70.328 212.313 70.66 211.143 71.0567 209.995C71.34 209.222 71.6821 208.47 71.9277 207.684C72.2754 206.45 72.4872 205.181 72.5592 203.901C72.7297 201.881 72.82 199.856 72.8302 197.827C72.8881 195.903 72.7279 193.98 72.3526 192.093C71.814 189.704 70.711 187.485 69.6177 185.293C69.033 185.433 68.4842 185.693 68.0064 186.058C66.5975 186.97 65.1264 187.782 63.6039 188.488C62.581 188.963 60.5862 189.3 59.9369 190.289C59.2967 191.265 59.7098 193.255 59.7587 194.331C59.8427 196.178 60.0131 198.018 60.2699 199.852Z" fill="black"/>
<path d="M49.0348 167.281C47.9312 170.25 49.5534 173.457 50.9627 176.294C54.4348 183.282 56.8459 190.738 59.2441 198.163C59.4237 198.719 59.6032 199.325 59.403 199.874C59.23 200.265 58.9493 200.597 58.5937 200.834C56.9401 202.088 54.8346 202.535 52.8648 203.192C50.9612 203.827 49.1379 204.68 47.4319 205.736C46.0045 206.62 44.6674 207.64 43.3329 208.658L39.0847 211.9C38.8097 212.086 38.5694 212.318 38.3747 212.587C37.9649 213.229 38.1327 214.067 38.3367 214.801C38.877 216.744 39.5725 218.641 40.4167 220.473C40.5556 220.874 40.82 221.22 41.171 221.46C41.8341 221.816 42.6451 221.344 43.1514 220.788C43.6578 220.231 44.0957 219.539 44.8095 219.3C45.5224 219.061 46.3071 219.35 47.0517 219.246C48.2559 219.077 49.0554 217.968 49.9234 217.118C53.4698 213.641 59.3909 213.894 63.2921 210.82C63.8561 210.316 64.4531 209.85 65.0792 209.425C65.7388 209.036 66.4867 208.822 67.171 208.478C69.2522 207.431 70.5606 205.266 71.2615 203.046C71.9624 200.825 72.1623 198.481 72.666 196.208C72.9264 195.033 73.2691 193.871 73.3849 192.673C73.4594 191.559 73.4351 190.44 73.3123 189.33L71.9047 171.932C71.7901 170.515 71.6753 169.097 71.4527 167.694C67.272 167.843 63.0944 168.011 58.9113 168.06C55.5828 168.1 52.193 168.332 49.0348 167.281Z" fill="#2F2E41"/>
<path d="M47.4978 171.351C48.0649 172.262 49.4453 172.244 50.3958 171.744C51.3463 171.244 52.0847 170.405 53.0375 169.91C54.3178 169.244 55.8327 169.269 57.2754 169.31C59.5594 169.374 61.8715 169.443 64.069 170.068C66.3419 170.715 68.5545 171.961 70.9047 171.712C71.3137 171.669 71.7609 171.552 71.9834 171.206C72.1138 170.956 72.1752 170.675 72.1611 170.394L72.238 168.342C72.2851 167.987 72.2283 167.627 72.0745 167.303C71.8773 167.034 71.6069 166.828 71.2956 166.707C67.9504 165.09 64.1356 164.788 60.4213 164.661C58.5332 164.597 56.6443 164.57 54.7547 164.581C53.1511 164.591 51.2261 164.359 49.6671 164.788C47.5748 165.362 46.4363 169.646 47.4978 171.351Z" fill="#2F2E41"/>
<path d="M68.5027 117.624C64.1197 117.586 60.1477 114.695 55.7651 114.625C55.2356 114.588 54.7051 114.68 54.2185 114.891C53.6078 115.199 53.2062 115.793 52.7423 116.295C51.4465 117.697 49.5699 118.446 48.2386 119.814C46.9903 121.097 46.2961 123.009 46.7889 124.729C47.2817 126.45 49.1417 127.769 50.8842 127.356C51.5863 125.085 53.0352 123.118 54.9961 121.774C56.0165 121.12 57.0918 120.556 58.2099 120.088C60.1797 119.197 62.3823 118.288 64.4387 118.956C65.1971 119.242 65.9123 119.632 66.5637 120.114L69.9922 122.415C69.5927 120.841 69.2335 119.075 68.5027 117.624Z" fill="#0D7EA0"/>
<path d="M50.3793 125.834C49.7973 126.559 50.6358 127.61 50.5074 128.531C50.4222 129.143 49.9182 129.61 49.7084 130.191C49.491 130.793 49.6063 131.459 49.5238 132.094C49.4411 132.555 49.3188 133.009 49.1581 133.449C48.7889 134.765 48.5312 136.109 48.3877 137.468L47.6205 143.192C47.4873 144.054 47.4063 144.922 47.3778 145.794C47.4165 146.445 47.3729 147.098 47.2482 147.738C47.0783 148.364 46.7021 148.911 46.4491 149.508C46.196 150.105 46.0787 150.827 46.4206 151.377C45.2758 152.33 44.9354 154.201 45.7359 155.456C45.8883 155.652 46.0075 155.871 46.0887 156.106C46.1329 156.433 46.0789 156.766 45.9333 157.063L45.1576 159.128C44.959 159.656 44.8962 160.461 45.4483 160.582C44.991 161.056 44.6348 161.618 44.401 162.234C44.2877 162.544 44.2538 162.876 44.3025 163.202C44.3513 163.528 44.481 163.836 44.68 164.098C44.8727 164.267 45.0368 164.466 45.1659 164.688C45.2418 164.996 45.2222 165.32 45.1097 165.617C44.9938 166.068 44.9714 166.538 45.044 166.998C45.1167 167.458 45.2828 167.898 45.5322 168.292C45.7906 168.68 46.1566 168.984 46.5854 169.168C47.0141 169.351 47.4872 169.406 47.9467 169.326C49.4984 168.976 50.8928 168.424 52.4575 168.711C55.8263 169.328 59.206 169.949 62.4688 170.989C66.1927 172.177 69.7984 173.919 73.6903 174.285C73.9464 174.337 74.2128 174.296 74.4408 174.168C74.6391 173.98 74.7624 173.727 74.7878 173.455C75.1888 171.577 75.5898 169.699 75.9907 167.82C76.4755 165.738 76.8446 163.631 77.0964 161.508C77.2334 160.138 77.2724 158.761 77.3113 157.384L77.6213 146.429C77.7666 144.815 77.5511 143.188 76.9904 141.667L75.2071 135.979C74.1895 132.734 71.855 129.855 71.0238 126.557C70.4978 124.47 70.1092 122.229 68.6985 120.602C66.6873 118.283 63.2076 117.922 60.162 118.321C58.7861 118.501 57.3985 118.812 56.2083 119.525C54.8321 120.349 53.8183 121.648 52.8375 122.916C52.0292 123.962 51.2064 124.803 50.3793 125.834Z" fill="#0D7EA0"/>
<path d="M57.4907 158.056C57.7416 159.137 58.2686 160.134 58.5912 161.196C59.1316 162.975 59.0857 164.891 59.6251 166.67C59.8515 167.417 60.1795 168.134 60.342 168.898C60.7209 170.677 60.1677 172.518 59.4806 174.203C58.7935 175.888 57.9567 177.55 57.7336 179.355C57.5765 180.627 57.8022 182.063 58.7834 182.889C59.802 183.746 61.2824 183.687 62.6091 183.573C63.0854 183.56 63.5555 183.462 63.9976 183.285C65.0122 182.805 65.4395 181.605 65.6767 180.509C66.4715 176.836 66.2445 173.029 66.0135 169.278L65.4094 159.468C65.2931 157.579 65.1686 155.651 64.5861 153.838C64.3742 153.178 64.0049 151.845 63.4018 151.424C62.8045 151.007 61.0988 150.989 60.3592 150.954C56.8895 150.791 56.9284 155.63 57.4907 158.056Z" fill="#FBBEBE"/>
<path d="M61.3351 121.836C60.6264 121.465 59.7337 121.625 59.0487 122.038C58.3873 122.49 57.8081 123.052 57.3359 123.699C55.8047 125.567 54.1837 127.71 54.4108 130.113C54.496 131.014 54.8413 131.867 55.0754 132.741C56.1021 136.575 54.9668 140.63 55.0971 144.597C55.1723 146.889 55.6715 149.143 56.1687 151.382C56.2701 151.839 56.4326 152.368 56.875 152.522C57.2074 152.637 57.5663 152.489 57.8952 152.364C59.1206 151.911 60.437 151.76 61.7331 151.924C63.0292 152.087 64.2669 152.559 65.3416 153.301C66.1634 152.863 65.8554 151.478 65.6712 150.566C65.1239 147.856 65.8669 145.06 66.7692 142.447C67.6716 139.833 68.7512 137.223 68.9007 134.462C69.0701 131.334 68.0321 128.281 67.0078 125.32C66.7843 124.674 66.54 123.996 66.0216 123.55C65.5779 123.22 65.0693 122.988 64.5294 122.869C63.4415 122.547 62.34 122.362 61.3351 121.836Z" fill="#2F2E41"/>
</g>
<defs>
<clipPath id="clip0">
<rect width="323" height="245" fill="white" transform="translate(0.00195312 0.217651)"/>
</clipPath>
</defs>
</svg>
